<?xml version="1.0" standalone="no"?>
<!DOCTYPE svg PUBLIC "-//W3C//DTD SVG 20010904//EN"
 "http://www.w3.org/TR/2001/REC-SVG-20010904/DTD/svg10.dtd">
<svg version="1.0" xmlns="http://www.w3.org/2000/svg"
 width="3543.000000pt" height="3543.000000pt" viewBox="0 0 3543.000000 3543.000000"
 preserveAspectRatio="xMidYMid meet">
<metadata>
Created by potrace 1.11, written by Peter Selinger 2001-2013
</metadata>
<g transform="translate(0.000000,3543.000000) scale(0.100000,-0.100000)"
fill="#000000" stroke="none">
<path d="M10818 28055 c-1 -1 -120 -6 -263 -10 -143 -3 -280 -8 -305 -10 -25
-1 -88 -6 -140 -10 -135 -9 -251 -19 -332 -29 -59 -7 -116 -14 -188 -21 -30
-4 -80 -11 -110 -16 -30 -5 -75 -11 -100 -14 -152 -18 -403 -70 -672 -139
-640 -163 -1250 -415 -1843 -759 -66 -39 -129 -75 -140 -81 -21 -12 -57 -35
-270 -175 -107 -70 -298 -204 -340 -238 -5 -5 -28 -22 -50 -38 -135 -100 -391
-312 -535 -443 -236 -216 -459 -440 -630 -634 -146 -165 -268 -310 -347 -414
-12 -16 -31 -40 -42 -54 -11 -14 -52 -68 -90 -120 -38 -52 -76 -102 -83 -111
-24 -26 -301 -448 -367 -558 -154 -255 -353 -634 -476 -906 -106 -235 -249
-609 -332 -870 -42 -134 -119 -396 -128 -439 -2 -12 -16 -68 -30 -126 -15 -58
-29 -116 -31 -130 -3 -14 -10 -45 -15 -70 -6 -25 -13 -56 -15 -70 -3 -14 -16
-83 -30 -155 -27 -143 -31 -161 -39 -220 -3 -22 -7 -51 -10 -65 -4 -24 -22
-156 -29 -217 -2 -16 -7 -62 -11 -103 -4 -41 -8 -88 -10 -104 -27 -218 -27
-1048 0 -1226 2 -14 6 -56 10 -95 8 -90 18 -174 36 -305 21 -153 57 -360 83
-480 8 -36 21 -98 30 -138 9 -41 28 -119 42 -175 14 -56 28 -109 29 -117 2 -8
4 -15 5 -15 1 0 3 -7 5 -15 18 -93 170 -568 225 -705 4 -11 36 -92 70 -180 34
-87 72 -182 85 -210 12 -27 38 -86 58 -130 157 -362 436 -865 680 -1230 203
-302 378 -534 621 -819 66 -77 143 -164 170 -194 28 -30 68 -73 89 -96 282
-303 659 -642 1007 -904 74 -56 140 -106 146 -111 61 -50 473 -320 594 -389
119 -68 185 -104 260 -144 103 -56 327 -167 395 -198 28 -12 74 -33 103 -46
46 -21 125 -55 202 -87 14 -5 30 -11 35 -13 6 -1 44 -16 85 -34 245 -103 679
-242 1025 -328 194 -49 454 -104 545 -117 25 -3 61 -10 80 -15 19 -5 58 -11
85 -15 57 -7 178 -24 215 -30 14 -2 54 -6 90 -10 36 -3 76 -8 90 -10 14 -2 61
-7 105 -10 44 -4 98 -8 120 -10 193 -18 664 -24 915 -11 191 10 369 23 410 31
8 2 49 6 90 10 41 4 82 9 91 10 9 2 40 6 69 10 29 4 62 9 74 11 12 2 41 7 66
10 25 3 52 7 60 9 8 3 33 7 55 10 22 3 54 9 70 12 17 4 37 8 45 9 14 3 79 16
90 19 3 0 23 4 45 9 22 4 87 19 145 33 58 14 115 27 128 29 75 14 606 177 667
204 11 5 67 27 125 48 93 35 292 117 420 174 140 62 468 232 608 315 41 24 75
43 77 43 10 0 423 265 435 280 3 3 19 14 35 24 17 11 56 39 88 63 51 38 61 42
75 31 24 -19 1965 -1962 2567 -2570 1224 -1237 1248 -1261 1466 -1448 35 -30
82 -71 104 -90 380 -335 1016 -780 1461 -1020 234 -127 394 -206 659 -325 195
-88 669 -266 775 -291 8 -2 60 -17 115 -34 87 -27 376 -105 423 -115 10 -2 60
-13 112 -25 52 -12 106 -23 120 -26 14 -2 48 -9 75 -14 125 -25 211 -41 254
-46 20 -3 45 -6 56 -8 11 -2 45 -7 75 -11 30 -4 62 -9 70 -10 8 -2 40 -6 70
-10 30 -4 66 -9 80 -11 14 -2 57 -7 95 -9 39 -3 77 -8 85 -10 8 -2 62 -7 120
-11 58 -3 121 -7 140 -9 319 -31 1052 -20 1455 21 28 2 70 7 95 9 73 7 152 16
195 21 101 12 118 14 158 19 23 3 67 10 97 15 30 5 75 12 100 15 25 4 77 13
115 21 39 8 86 17 105 20 19 3 71 14 115 24 45 11 92 21 105 23 37 7 229 56
280 72 25 8 108 33 185 56 398 118 944 347 1312 550 250 138 541 313 614 371
20 15 40 28 43 28 15 0 529 379 556 410 3 3 43 37 90 75 47 38 87 72 90 75 3
3 39 34 80 70 216 187 568 540 743 745 38 44 74 85 80 90 33 28 392 487 457
585 8 12 22 32 31 44 65 86 236 350 340 524 299 498 578 1105 764 1665 78 237
187 637 229 842 4 17 8 39 10 50 25 120 47 235 56 291 17 110 20 128 25 144 2
8 7 44 10 80 4 35 8 67 10 70 1 3 6 37 9 75 4 39 9 81 11 95 49 341 49 1143 0
1485 -2 17 -7 64 -11 105 -3 41 -8 78 -10 81 -2 3 -6 33 -9 65 -6 59 -10 87
-20 134 -2 13 -7 42 -10 65 -3 22 -8 47 -10 55 -2 8 -7 35 -10 60 -3 25 -10
61 -15 80 -5 19 -11 52 -14 72 -3 20 -17 85 -31 143 -13 58 -27 116 -29 128
-2 12 -12 51 -21 87 -9 36 -18 72 -20 80 -23 104 -192 642 -233 740 -6 14 -20
52 -32 85 -25 69 -32 87 -53 135 -9 19 -29 69 -45 110 -16 41 -42 102 -57 135
-15 33 -43 96 -63 140 -193 424 -487 938 -757 1320 -16 24 -39 56 -50 71 -28
41 -191 259 -242 324 -24 30 -47 60 -51 65 -10 14 -105 127 -117 141 -5 6 -28
32 -50 58 -229 275 -607 652 -955 950 -112 96 -385 308 -510 395 -513 360
-974 612 -1540 843 -80 33 -149 61 -155 62 -14 4 -44 16 -80 31 -45 19 -407
140 -510 171 -221 65 -444 122 -605 156 -25 5 -54 11 -65 13 -129 27 -331 65
-375 70 -30 4 -57 8 -60 10 -3 1 -30 6 -61 9 -31 4 -65 8 -75 10 -11 2 -46 7
-79 10 -33 4 -73 9 -90 11 -16 2 -59 6 -95 10 -36 3 -82 8 -103 11 -21 2 -88
6 -150 10 -62 3 -141 7 -177 10 -75 4 -578 4 -660 -1 -95 -5 -254 -16 -285
-19 -16 -2 -68 -7 -115 -11 -47 -4 -93 -9 -103 -11 -10 -2 -45 -6 -78 -9 -33
-4 -70 -8 -82 -11 -12 -2 -42 -6 -67 -9 -25 -4 -67 -10 -95 -15 -27 -5 -66
-11 -85 -14 -19 -3 -71 -12 -115 -21 -44 -9 -91 -18 -105 -21 -30 -5 -85 -18
-200 -45 -47 -11 -93 -22 -103 -24 -10 -2 -27 -7 -37 -10 -10 -3 -28 -8 -39
-10 -118 -22 -713 -216 -816 -265 -11 -5 -60 -26 -110 -46 -214 -86 -526 -236
-724 -348 -42 -24 -96 -54 -121 -68 -92 -51 -388 -236 -450 -281 -115 -83
-237 -167 -243 -167 -9 0 -1697 1688 -2587 2587 -283 286 -641 648 -796 804
-521 527 -792 768 -1245 1108 -509 383 -1016 681 -1629 959 -117 53 -401 164
-575 224 -233 81 -682 210 -815 234 -14 3 -53 11 -88 19 -34 8 -75 17 -92 20
-16 3 -74 14 -127 24 -54 11 -118 22 -143 26 -25 3 -52 8 -60 10 -8 2 -35 6
-60 9 -25 3 -54 7 -65 10 -11 2 -45 7 -75 11 -30 3 -66 8 -80 10 -14 2 -50 6
-80 10 -30 3 -71 8 -90 10 -47 6 -138 14 -235 21 -44 3 -100 7 -125 9 -25 2
-151 7 -280 10 -129 3 -240 8 -247 10 -6 2 -13 2 -15 0z m320 -4340 c128 -14
152 -17 262 -36 190 -33 352 -78 545 -149 97 -36 126 -48 265 -112 70 -33 240
-123 305 -163 22 -13 54 -32 70 -41 116 -65 390 -270 579 -434 57 -51 325
-305 551 -525 813 -789 1185 -1157 2139 -2112 397 -397 1106 -1110 1576 -1584
1661 -1675 3511 -3514 3549 -3527 5 -2 5 14 1 35 -8 38 -15 101 -27 243 -13
150 -5 602 11 651 3 8 7 43 11 78 3 36 7 67 9 70 2 3 7 31 10 61 21 176 141
604 221 785 7 17 25 59 40 95 152 364 441 793 739 1100 96 98 185 182 266 250
36 30 67 57 70 60 12 13 240 179 295 215 33 21 79 51 103 67 24 15 45 28 48
28 2 0 23 12 47 27 41 26 331 173 341 173 3 0 31 12 63 26 169 78 466 171 683
215 58 11 112 22 120 24 14 3 136 21 205 30 201 27 694 27 885 1 14 -2 48 -7
75 -10 28 -4 61 -8 75 -11 14 -3 39 -7 55 -10 33 -5 55 -10 130 -25 28 -6 59
-12 70 -14 11 -2 56 -14 100 -26 44 -12 87 -23 95 -25 26 -6 254 -82 285 -95
17 -7 39 -16 50 -21 11 -4 49 -20 83 -34 192 -78 448 -217 632 -343 677 -463
1167 -1098 1437 -1862 38 -109 96 -304 109 -365 2 -11 11 -51 19 -90 8 -38 17
-83 20 -100 16 -88 25 -142 31 -193 3 -31 8 -66 10 -77 25 -128 24 -631 -1
-835 -8 -61 -44 -290 -50 -317 -3 -13 -7 -31 -9 -41 -95 -423 -238 -785 -453
-1143 -65 -109 -106 -169 -218 -325 -164 -226 -493 -555 -737 -736 -29 -21
-60 -44 -68 -51 -108 -85 -383 -246 -590 -345 -85 -41 -209 -100 -275 -132
-261 -125 -608 -245 -795 -276 -14 -2 -45 -9 -70 -14 -58 -13 -93 -18 -160
-26 -30 -3 -63 -8 -73 -10 -46 -8 -224 -18 -337 -17 -222 0 -398 19 -639 68
-259 52 -682 216 -916 355 -27 16 -68 39 -90 51 -119 65 -373 248 -550 396
-150 125 -121 98 -646 603 -711 684 -1905 1872 -3619 3600 -1493 1505 -2821
2830 -3375 3365 -49 48 -130 126 -178 173 l-88 87 6 -55 c4 -30 8 -66 11 -80
21 -136 21 -620 -1 -740 -2 -14 -6 -51 -9 -82 -3 -32 -8 -68 -10 -80 -3 -13
-8 -40 -11 -62 -8 -54 -44 -235 -55 -271 -5 -16 -11 -41 -14 -55 -7 -46 -83
-282 -125 -391 -188 -494 -467 -925 -841 -1300 -85 -85 -171 -168 -190 -185
-120 -101 -155 -129 -245 -196 -308 -229 -656 -410 -1035 -538 -84 -29 -228
-71 -258 -76 -15 -3 -36 -8 -47 -11 -11 -4 -24 -8 -30 -9 -5 -1 -47 -9 -93
-18 -88 -19 -105 -22 -167 -30 -22 -4 -51 -8 -65 -11 -109 -19 -370 -38 -535
-38 -86 0 -322 12 -358 18 -12 2 -47 6 -77 9 -50 5 -200 28 -260 40 -14 3 -38
8 -55 12 -383 75 -817 247 -1170 461 -109 66 -338 223 -355 243 -3 3 -25 21
-50 40 -147 111 -380 339 -535 525 -387 461 -672 1054 -789 1640 -13 65 -16
82 -26 140 -9 56 -14 88 -24 168 -22 154 -29 567 -13 722 5 44 10 100 13 125
2 25 6 56 9 70 2 14 7 48 10 75 4 28 8 57 10 65 2 8 7 35 10 60 3 25 11 63 17
85 5 22 12 51 14 65 2 14 7 36 10 50 3 14 7 32 9 40 2 8 17 62 34 120 177 617
528 1197 993 1645 148 143 152 146 293 256 323 252 644 432 1030 574 55 21
161 60 235 87 196 73 398 134 510 154 14 2 59 11 100 19 41 8 98 17 125 21 28
3 59 8 70 10 11 2 67 7 125 10 58 4 106 8 107 9 6 4 329 -4 381 -10z"/>
</g>
</svg>
